// Gmsh project created on Fri Apr 10 08:16:45 2026
SetFactory("OpenCASCADE");
//+
cl_1 = 5000.0;
//+
Point(1) = {0, 0, 0, cl_1};
//+
Point(2) = {278000/2, 0, 0, cl_1};
//+
Point(3) = {-278000/2, 0, 0, cl_1};
//+
Point(4) = {0, 238000/2, 0, cl_1};
//+
Point(5) = {0, -238000/2, 0, cl_1};
//+
Point(6) = {0, 0, 171000/2, cl_1};
//+
Point(7) = {0, 0, -171000/2, cl_1};
//+
Ellipse(1) = {2, 1, 3, 4};
//+
Ellipse(2) = {4, 1, 2, 3};
//+
Ellipse(3) = {3, 1, 2, 5};
//+
Ellipse(4) = {5, 1, 3, 2};
//+
Ellipse(5) = {7, 1, 2, 3};
//+
Ellipse(6) = {3, 1, 2, 6};
//+
Ellipse(7) = {6, 1, 3, 2};
//+
Ellipse(8) = {2, 1, 3, 7};
//+
Ellipse(9) = {4, 1, 5, 6};
//+
Ellipse(10) = {6, 1, 4, 5};
//+
Ellipse(11) = {5, 1, 4, 7};
//+
Ellipse(12) = {7, 1, 5, 4};
//+
Sphere(13) = {73221.55153634181, -40427.230828003, 35796.20784214517, 15355.21661};
//+
Sphere(14) = {-25616.732128495, -78901.9010693229, 7370.045566794317, 15355.21661};
//+
Sphere(15) = {-46378.71350503285, -68401.94751719569, -34422.07978243432, 15355.21661};
//+
Sphere(16) = {-90456.30706308561, 54528.08175401835, -18010.179423322916, 15355.21661};
//+
Sphere(17) = {87469.7423203688, 18206.54325735703, 40119.51582148051, 15355.21661};
//+
Sphere(18) = {3571.623234566039, -39380.93545073799, 71160.42775920458, 7677.608305};
//+
Sphere(19) = {92957.60228433678, -29775.31702764705, -37008.69581937051, 7677.608305};
//+
Sphere(20) = {49533.310471026896, -7261.884295370313, 61628.41264052194, 7677.608305};
//+
Sphere(21) = {-93503.89662537182, 6067.288559733381, 30442.357407851785, 7677.608305};
//+
Sphere(22) = {-51573.48635236577, -76961.97613105536, 33160.25171227865, 7677.608305};
//+
Sphere(23) = {54915.28749398477, 21150.998845055117, -62735.70478841584, 7677.608305};
//+
Sphere(24) = {11138.698118149157, -82755.27486512433, 25879.657507710872, 7677.608305};
//+
Sphere(25) = {-22209.395322129014, 6191.22586754823, -30503.650072845412, 7677.608305};
//+
Sphere(26) = {9225.949752501096, 66288.1418736612, -10617.61108755249, 7677.608305};
//+
Sphere(27) = {-48718.09859202751, 48865.95496432594, -8935.520257309166, 7677.608305};
//+
Curve Loop(16) = {2, 6, -9};
//+
Surface(16) = {16};
//+
Curve Loop(18) = {7, 1, 9};
//+
Surface(17) = {18};
//+
Curve Loop(20) = {1, -12, -8};
//+
Surface(18) = {20};
//+
Curve Loop(22) = {12, 2, -5};
//+
Surface(19) = {22};
//+
Curve Loop(24) = {3, -10, -6};
//+
Surface(20) = {24};
//+
Curve Loop(26) = {10, 4, -7};
//+
Surface(21) = {26};
//+
Curve Loop(28) = {8, -11, 4};
//+
Surface(22) = {28};
//+
Curve Loop(30) = {11, 5, 3};
//+
Surface(23) = {30};
//+
Surface Loop(16) = {19, 18, 17, 21, 20, 23, 22, 16};
//+
Volume(28) = {16};
//+
out = BooleanDifference{ Volume{28}; Delete; }{ Volume{13:27}; };
//+
blob_surfaces = Boundary{ Volume{13:27}; };
//+
Point(44) = {204832.1513/2, 0, 0, cl_1};
//+
Point(45) = {-204832.1513/2, 0, 0, cl_1};
//+
Point(46) = {0, 175359.8993/2, 0, cl_1};
//+
Point(47) = {0, -175359.8993/2, 0, cl_1};
//+
Point(48) = {0, 0, 125993.8773/2, cl_1};
//+
Point(49) = {0, 0, -125993.8773/2, cl_1};
//+
Ellipse(70) = {48, 1, 44, 45};
//+
Ellipse(71) = {45, 1, 44, 49};
//+
Ellipse(72) = {49, 1, 45, 44};
//+
Ellipse(73) = {44, 1, 45, 48};
//+
Ellipse(74) = {48, 1, 47, 46};
//+
Ellipse(75) = {46, 1, 47, 49};
//+
Ellipse(76) = {49, 1, 46, 47};
//+
Ellipse(77) = {47, 1, 46, 48};
//+
Ellipse(78) = {46, 1, 44, 45};
//+
Ellipse(79) = {45, 1, 44, 47};
//+
Ellipse(80) = {47, 1, 45, 44};
//+
Ellipse(81) = {44, 1, 45, 46};
//+
Curve Loop(39) = {78, -70, 74};
//+
Surface(24) = {39};
//+
Curve Loop(41) = {73, 74, -81};
//+
Surface(25) = {41};
//+
Curve Loop(43) = {72, 81, 75};
//+
Surface(26) = {43};
//+
Curve Loop(45) = {71, -75, 78};
//+
Surface(27) = {45};
//+
Curve Loop(47) = {70, 79, 77};
//+
Surface(28) = {47};
//+
Curve Loop(49) = {73, -77, 80};
//+
Surface(29) = {49};
//+
Curve Loop(51) = {76, 80, -72};
//+
Surface(30) = {51};
//+
Curve Loop(53) = {71, 76, -79};
//+
Surface(31) = {53};
//+
Surface Loop(17) = {27, 31, 28, 24, 25, 26, 30, 29};
//+
Volume(29) = {17};
//+
out2 = BooleanDifference{ Volume{29}; Delete; }{ Volume{13:27}; };
//+
Physical Volume("inner") = {out2};
//+
Physical Surface("outer", 101) = {16, 19, 17, 18, 22, 21, 20, 23, blob_surfaces};
//+
Physical Volume("outer") = {out};
//+
Physical Volume("blobs") = {13:27};
//+
Mesh.CharacteristicLengthMin = cl_1;
//+
Mesh.CharacteristicLengthMax = cl_1;
//+
Coherence;
